<svg width="24" height="24" viewBox="0 0 24 24" xmlns="http://www.w3.org/2000/svg">
<path d="M12.0145 3C12.5208 3.00094 12.9374 3.38714 12.9936 3.88378L13 4.00023L12.979 15.687L17.2883 11.3538C17.6465 10.9936 18.2135 10.9625 18.6078 11.2627L18.7025 11.3447C19.0653 11.7003 19.0967 12.2632 18.7942 12.6546L18.7117 12.7486L12.7309 18.7632C12.6206 18.8741 12.4906 18.9537 12.352 19.0022L18 19C18.5523 19 19 19.4477 19 20C19 20.5523 18.5523 21 18 21H6C5.44772 21 5 20.5523 5 20C5 19.4477 5.44772 19 6 19L11.6869 19.0023C11.5869 18.9674 11.4914 18.9162 11.4045 18.8488L11.3099 18.7654L5.2906 12.7509C4.90135 12.362 4.9034 11.7334 5.29519 11.347C5.65685 10.9903 6.22416 10.9646 6.61546 11.2686L6.7094 11.3515L11.004 15.642L11.0254 3.99656C11.0264 3.48455 11.4083 3.06327 11.8994 3.0065L12.0145 3Z" />
</svg>
