<svg xmlns="http://www.w3.org/2000/svg" width="24" height="24" viewBox="0 0 24 24">
  <g fill-rule="evenodd">
    <rect width="24" height="24" fill="#FFF" opacity="0"/>
    <path fill-rule="nonzero" d="M11,4 L11,6 L7,6 C6.48716416,6 6.06449284,6.38604019 6.00672773,6.88337887 L6,7 L6,17 C6,17.5128358 6.38604019,17.9355072 6.88337887,17.9932723 L7,18 L17,18 C17.5128358,18 17.9355072,17.6139598 17.9932723,17.1166211 L18,17 L18,13 L20,13 L20,17 C20,18.5976809 18.75108,19.9036609 17.1762728,19.9949073 L17,20 L7,20 C5.40231912,20 4.09633912,18.75108 4.00509269,17.1762728 L4,17 L4,7 C4,5.40231912 5.24891996,4.09633912 6.82372721,4.00509269 L7,4 L11,4 Z M20,4 L20,10 L17.707,7.707 L11.7071068,13.7071068 L10.2928932,12.2928932 L16.292,6.292 L14,4 L20,4 Z"/>
  </g>
</svg>
