<svg width="24" height="24" viewBox="0 0 24 24" xmlns="http://www.w3.org/2000/svg" xmlns:xlink="http://www.w3.org/1999/xlink">
    <defs>
        <path d="M10 0c5.523 0 10 4.477 10 10s-4.477 10-10 10S0 15.523 0 10 4.477 0 10 0zm0 2a8 8 0 100 16 8 8 0 000-16zm.04 9.74c.173 0 .335.032.485.095.15.063.282.15.395.26a1.187 1.187 0 01.36.855c0 .173-.032.333-.095.48a1.132 1.132 0 01-.265.38 1.32 1.32 0 01-.395.255c-.15.063-.312.095-.485.095s-.335-.032-.485-.095a1.32 1.32 0 01-.395-.255 1.132 1.132 0 01-.265-.38 1.198 1.198 0 01-.095-.48 1.173 1.173 0 01.36-.855c.113-.11.245-.197.395-.26.15-.063.312-.095.485-.095zm.03-6.02c.307 0 .62.035.94.105.32.07.61.187.87.35.26.163.473.38.64.65.167.27.25.602.25.995 0 .233-.12.96-.18 1.14-.06.18-.147.345-.26.495-.113.15-.252.288-.415.415a5.54 5.54 0 01-.545.37.874.874 0 00-.285.25.465.465 0 00-.075.25V11H8.88v-.37a1.493 1.493 0 01.28-.93c.087-.12.19-.232.31-.335.12-.103.25-.205.39-.305l.17-.12c.107-.073.188-.145.245-.215.057-.07.175-.665.175-.745 0-.14-.042-.238-.125-.295a.512.512 0 00-.295-.085c-.22 0-.377.078-.47.235-.093.157-.14.338-.14.545L7.27 8.1c.04-.427.145-.792.315-1.095.17-.303.383-.55.64-.74.257-.19.543-.328.86-.415.317-.087.645-.13.985-.13z" id="a"/>
    </defs>
    <g fill-rule="evenodd">
        <path d="M0 0h24v24H0z" fill="none"/>
        <g transform="translate(2 2)">
            <mask id="b" fill="#fff">
                <use xlink:href="#a"/>
            </mask>
            <g mask="url(#b)" fill-rule="nonzero">
                <path d="M-2-2h24v24H-2z"/>
            </g>
        </g>
    </g>
</svg>