<svg xmlns="http://www.w3.org/2000/svg" width="22" height="16" viewBox="0 0 320 240">
  <g fill="none">
    <polygon fill="#F31930" points="0 0 320 0 320 240 0 240"/>
    <path fill="#FFF" d="M203.489,123.7365 C203.489,156.844 176.1855,183.6815 142.5035,183.6815 C108.8215,183.6815 81.52,156.843 81.52,123.736 C81.52,90.629 108.823,63.791 142.504,63.791 C176.185,63.791 203.489,90.6295 203.489,123.736 L203.489,123.7365 Z"/>
    <path fill="#F31830" d="M206.5385,123.7335 C206.5385,150.2185 184.6955,171.6885 157.751,171.6885 C130.8065,171.6885 108.964,150.2185 108.964,123.7335 C108.964,97.2485 130.807,75.7785 157.751,75.7785 C184.695,75.7785 206.5385,97.2485 206.5385,123.7335 Z"/>
    <polygon fill="#FFF" points="215.363 95.733 214.87 117.891 194.198 123.504 214.576 130.761 214.084 151.082 227.374 135.213 247.456 142.18 235.839 125.15 250.016 108.216 228.259 114.215 215.363 95.733"/>
  </g>
</svg>
