<svg xmlns="http://www.w3.org/2000/svg" width="22" height="16" viewBox="0 0 320 240">
  <g fill="none">
    <path fill="#BD3D44" d="M0,0 L320,0 L320,18.4615385 L0,18.4615385 L0,0 Z M0,36.9230769 L320,36.9230769 L320,55.3846154 L0,55.3846154 L0,36.9230769 Z M0,73.8461538 L320,73.8461538 L320,92.3076923 L0,92.3076923 L0,73.8461538 Z M0,110.769231 L320,110.769231 L320,129.230769 L0,129.230769 L0,110.769231 Z M0,147.692308 L320,147.692308 L320,166.153846 L0,166.153846 L0,147.692308 Z M0,184.615385 L320,184.615385 L320,203.076923 L0,203.076923 L0,184.615385 Z M0,221.538462 L320,221.538462 L320,240 L0,240 L0,221.538462 Z"/>
    <path fill="#FFF" d="M0,18.5 L320,18.5 L320,36.9545455 L0,36.9545455 L0,18.5 Z M0,55.4090909 L320,55.4090909 L320,73.8636364 L0,73.8636364 L0,55.4090909 Z M0,92.3181818 L320,92.3181818 L320,110.772727 L0,110.772727 L0,92.3181818 Z M0,129.227273 L320,129.227273 L320,147.681818 L0,147.681818 L0,129.227273 Z M0,166.136364 L320,166.136364 L320,184.590909 L0,184.590909 L0,166.136364 Z M0,203.045455 L320,203.045455 L320,221.5 L0,221.5 L0,203.045455 Z"/>
    <polygon fill="#192F5D" points="0 0 162 0 162 129 0 129"/>
    <path fill="#FFF" d="M6.43153803.3744L7.90736901 5.473728 12.6842254 5.473728 8.8195493 8.625708 10.2957972 13.725036 6.43112113 10.573524 2.56727887 13.725036 4.04310986 8.625708.178850704 5.473728 4.95529014 5.473728 6.43153803.3744zM33.4688451.3744L34.945093 5.473728 39.7219493 5.473728 35.8572732 8.625708 37.3335211 13.725036 33.4688451 10.573524 29.6050028 13.725036 31.0808338 8.625708 27.2165746 5.473728 31.9930141 5.473728 33.4688451.3744zM60.5074028.3744L61.9832338 5.473728 66.7600901 5.473728 62.8954141 8.625708 64.371662 13.725036 60.5074028 10.573524 56.6431437 13.725036 58.1189746 8.625708 54.2547155 5.473728 59.0315718 5.473728 60.5074028.3744zM87.544293.3744L89.0201239 5.473728 93.7965634 5.473728 89.9323042 8.625708 91.4081352 13.725036 87.544293 10.573524 83.6796169 13.725036 85.1558648 8.625708 81.2911887 5.473728 86.0680451 5.473728 87.544293.3744zM114.582434.3744L116.058265 5.473728 120.835121 5.473728 116.970445 8.625708 118.446693 13.725036 114.582017 10.573524 110.718175 13.725036 112.194006 8.625708 108.329746 5.473728 113.106186 5.473728 114.582434.3744zM141.620575.3744L143.096406 5.473728 147.873262 5.473728 144.008586 8.625708 145.484834 13.725036 141.620575 10.573524 137.755899 13.725036 139.232563 8.625708 135.367887 5.473728 140.144744 5.473728 141.620575.3744zM19.9508169 13.27716L21.4266479 18.376488 26.2035042 18.376488 22.3388282 21.528 23.815493 26.627796 19.9508169 23.476284 16.0865577 26.627796 17.5623887 21.528 13.6981296 18.376488 18.4749859 18.376488 19.9508169 13.27716zM46.987707 13.27716L48.463538 18.376488 53.2399775 18.376488 49.3757183 21.528 50.8515493 26.627796 46.987707 23.476284 43.123031 26.627796 44.5992789 21.528 40.7346028 18.376488 45.5114592 18.376488 46.987707 13.27716zM74.0258479 13.27716L75.5016789 18.376488 80.2785352 18.376488 76.4138592 21.528 77.890107 26.627796 74.025431 23.476284 70.1615887 26.627796 71.6374197 21.528 67.7731606 18.376488 72.5496 18.376488 74.0258479 13.27716zM101.063989 13.27716L102.53982 18.376488 107.316676 18.376488 103.452 21.528 104.928248 26.627796 101.063989 23.476284 97.1993127 26.627796 98.6763944 21.528 94.8117183 18.376488 99.5885746 18.376488 101.063989 13.27716zM128.100879 13.27716L129.57671 18.376488 134.353149 18.376488 130.48889 21.528 131.964721 26.627796 128.100879 23.476284 124.236203 26.627796 125.712451 21.528 121.847775 18.376488 126.624631 18.376488 128.100879 13.27716zM6.43153803 26.179452L7.90736901 31.27878 12.6842254 31.27878 8.8195493 34.43076 10.2957972 39.530088 6.43112113 36.378576 2.56727887 39.530088 4.04310986 34.43076.178850704 31.27878 4.95529014 31.27878 6.43153803 26.179452zM33.4688451 26.179452L34.945093 31.27878 39.7219493 31.27878 35.8572732 34.43076 37.3335211 39.530088 33.4688451 36.378576 29.6050028 39.530088 31.0808338 34.43076 27.2165746 31.27878 31.9930141 31.27878 33.4688451 26.179452zM60.5074028 26.179452L61.9832338 31.27878 66.7600901 31.27878 62.8954141 34.43076 64.371662 39.530088 60.5074028 36.378576 56.6431437 39.530088 58.1189746 34.43076 54.2547155 31.27878 59.0315718 31.27878 60.5074028 26.179452zM87.544293 26.179452L89.0201239 31.27878 93.7965634 31.27878 89.9323042 34.43076 91.4081352 39.530088 87.544293 36.378576 83.6796169 39.530088 85.1558648 34.43076 81.2911887 31.27878 86.0680451 31.27878 87.544293 26.179452zM114.582434 26.179452L116.058265 31.27878 120.835121 31.27878 116.970445 34.43076 118.446693 39.530088 114.582017 36.378576 110.718175 39.530088 112.194006 34.43076 108.329746 31.27878 113.106186 31.27878 114.582434 26.179452zM141.620575 26.179452L143.096406 31.27878 147.873262 31.27878 144.008586 34.43076 145.484834 39.530088 141.620575 36.378576 137.755899 39.530088 139.232563 34.43076 135.367887 31.27878 140.144744 31.27878 141.620575 26.179452zM19.9508169 39.081744L21.4266479 44.18154 26.2035042 44.18154 22.3388282 47.333052 23.815493 52.432848 19.9508169 49.281336 16.0865577 52.432848 17.5623887 47.333052 13.6981296 44.18154 18.4749859 44.18154 19.9508169 39.081744zM46.987707 39.081744L48.463538 44.18154 53.2399775 44.18154 49.3757183 47.333052 50.8515493 52.432848 46.987707 49.281336 43.123031 52.432848 44.5992789 47.333052 40.7346028 44.18154 45.5114592 44.18154 46.987707 39.081744zM74.0258479 39.081744L75.5016789 44.18154 80.2785352 44.18154 76.4138592 47.333052 77.890107 52.432848 74.025431 49.281336 70.1615887 52.432848 71.6374197 47.333052 67.7731606 44.18154 72.5496 44.18154 74.0258479 39.081744zM101.063989 39.081744L102.53982 44.18154 107.316676 44.18154 103.452 47.333052 104.928248 52.432848 101.063989 49.281336 97.1993127 52.432848 98.6759775 47.333052 94.8113014 44.18154 99.5881577 44.18154 101.063989 39.081744zM128.100879 39.081744L129.57671 44.18154 134.353149 44.18154 130.48889 47.333052 131.964721 52.432848 128.100879 49.281336 124.236203 52.432848 125.712451 47.333052 121.847775 44.18154 126.624631 44.18154 128.100879 39.081744zM6.43153803 51.984504L7.90736901 57.083832 12.6842254 57.083832 8.8195493 60.235812 10.2957972 65.33514 6.43112113 62.183628 2.56727887 65.33514 4.04310986 60.235812.178850704 57.083832 4.95529014 57.083832 6.43153803 51.984504zM33.4688451 51.984504L34.945093 57.083832 39.7219493 57.083832 35.8572732 60.235812 37.3335211 65.33514 33.4688451 62.183628 29.6050028 65.33514 31.0808338 60.235812 27.2165746 57.083832 31.9930141 57.083832 33.4688451 51.984504zM60.5074028 51.984504L61.9832338 57.083832 66.7600901 57.083832 62.8954141 60.235812 64.371662 65.33514 60.5074028 62.183628 56.6431437 65.33514 58.1189746 60.235812 54.2547155 57.083832 59.0315718 57.083832 60.5074028 51.984504zM87.544293 51.984504L89.0201239 57.083832 93.7965634 57.083832 89.9323042 60.235812 91.4081352 65.33514 87.544293 62.183628 83.6796169 65.33514 85.1558648 60.235812 81.2911887 57.083832 86.0680451 57.083832 87.544293 51.984504zM114.582434 51.984504L116.058265 57.083832 120.835121 57.083832 116.970445 60.235812 118.446693 65.33514 114.582017 62.183628 110.718175 65.33514 112.194006 60.235812 108.329746 57.083832 113.106186 57.083832 114.582434 51.984504zM141.620575 51.984504L143.096406 57.083832 147.873262 57.083832 144.008586 60.235812 145.484834 65.33514 141.620575 62.183628 137.755899 65.33514 139.232563 60.235812 135.367887 57.083832 140.144744 57.083832 141.620575 51.984504zM19.9508169 64.886796L21.4266479 69.986592 26.2035042 69.986592 22.3388282 73.138104 23.815493 78.2379 19.9508169 75.086388 16.0865577 78.2379 17.5623887 73.138104 13.6981296 69.986592 18.4749859 69.986592 19.9508169 64.886796zM46.987707 64.886796L48.463538 69.986592 53.2399775 69.986592 49.3757183 73.138104 50.8515493 78.2379 46.987707 75.086388 43.123031 78.2379 44.5992789 73.138104 40.7346028 69.986592 45.5114592 69.986592 46.987707 64.886796zM74.0258479 64.886796L75.5016789 69.986592 80.2785352 69.986592 76.4138592 73.138104 77.890107 78.2379 74.025431 75.086388 70.1615887 78.2379 71.6374197 73.138104 67.7731606 69.986592 72.5496 69.986592 74.0258479 64.886796zM101.063989 64.886796L102.53982 69.986592 107.316676 69.986592 103.452 73.138104 104.928248 78.2379 101.063989 75.086388 97.1993127 78.2379 98.6759775 73.138104 94.8113014 69.986592 99.5881577 69.986592 101.063989 64.886796zM128.100879 64.886796L129.57671 69.986592 134.353149 69.986592 130.48889 73.138104 131.964721 78.2379 128.100879 75.086388 124.236203 78.2379 125.712451 73.138104 121.847775 69.986592 126.624631 69.986592 128.100879 64.886796zM6.43153803 77.789556L7.90736901 82.888884 12.6842254 82.888884 8.8195493 86.040864 10.2957972 91.140192 6.43112113 87.98868 2.56727887 91.140192 4.04310986 86.040864.178850704 82.888884 4.95529014 82.888884 6.43153803 77.789556zM33.4688451 77.789556L34.945093 82.888884 39.7219493 82.888884 35.8572732 86.040864 37.3335211 91.140192 33.4688451 87.98868 29.6050028 91.140192 31.0808338 86.040864 27.2165746 82.888884 31.9930141 82.888884 33.4688451 77.789556zM60.5074028 77.789556L61.9832338 82.888884 66.7600901 82.888884 62.8954141 86.040864 64.371662 91.140192 60.5074028 87.98868 56.6431437 91.140192 58.1189746 86.040864 54.2547155 82.888884 59.0315718 82.888884 60.5074028 77.789556zM87.544293 77.789556L89.0201239 82.888884 93.7965634 82.888884 89.9323042 86.040864 91.4081352 91.140192 87.544293 87.98868 83.6796169 91.140192 85.1558648 86.040864 81.2911887 82.888884 86.0680451 82.888884 87.544293 77.789556zM114.582434 77.789556L116.058265 82.888884 120.835121 82.888884 116.970445 86.040864 118.446693 91.140192 114.582017 87.98868 110.718175 91.140192 112.194006 86.040864 108.329746 82.888884 113.106186 82.888884 114.582434 77.789556zM141.620575 77.789556L143.096406 82.888884 147.873262 82.888884 144.008586 86.040864 145.484834 91.140192 141.620575 87.98868 137.755899 91.140192 139.232563 86.040864 135.367887 82.888884 140.144744 82.888884 141.620575 77.789556zM19.9508169 90.691848L21.4266479 95.791644 26.2035042 95.791644 22.3388282 98.943156 23.815493 104.042952 19.9508169 100.89144 16.0865577 104.042952 17.5623887 98.943156 13.6981296 95.791644 18.4749859 95.791644 19.9508169 90.691848zM46.987707 90.691848L48.463538 95.791644 53.2399775 95.791644 49.3757183 98.943156 50.8515493 104.042952 46.987707 100.89144 43.123031 104.042952 44.5992789 98.943156 40.7346028 95.791644 45.5114592 95.791644 46.987707 90.691848zM74.0258479 90.691848L75.5016789 95.791644 80.2785352 95.791644 76.4138592 98.943156 77.890107 104.042952 74.025431 100.89144 70.1615887 104.042952 71.6374197 98.943156 67.7731606 95.791644 72.5496 95.791644 74.0258479 90.691848zM101.063989 90.691848L102.53982 95.791644 107.316676 95.791644 103.452 98.943156 104.928248 104.042952 101.063989 100.89144 97.1993127 104.042952 98.6759775 98.943156 94.8113014 95.791644 99.5881577 95.791644 101.063989 90.691848zM128.100879 90.691848L129.57671 95.791644 134.353149 95.791644 130.48889 98.943156 131.964721 104.042952 128.100879 100.89144 124.236203 104.042952 125.712451 98.943156 121.847775 95.791644 126.624631 95.791644 128.100879 90.691848zM6.43153803 103.594608L7.90736901 108.693936 12.6842254 108.693936 8.8195493 111.845916 10.2957972 116.945244 6.43112113 113.793732 2.56727887 116.945244 4.04310986 111.845916.178850704 108.693936 4.95529014 108.693936 6.43153803 103.594608zM33.4688451 103.594608L34.945093 108.693936 39.7219493 108.693936 35.8572732 111.845916 37.3335211 116.945244 33.4688451 113.793732 29.6050028 116.945244 31.0808338 111.845916 27.2165746 108.693936 31.9930141 108.693936 33.4688451 103.594608zM60.5074028 103.594608L61.9832338 108.693936 66.7600901 108.693936 62.8954141 111.845916 64.371662 116.945244 60.5074028 113.793732 56.6431437 116.945244 58.1189746 111.845916 54.2547155 108.693936 59.0315718 108.693936 60.5074028 103.594608zM87.544293 103.594608L89.0201239 108.693936 93.7965634 108.693936 89.9323042 111.845916 91.4081352 116.945244 87.544293 113.793732 83.6796169 116.945244 85.1558648 111.845916 81.2911887 108.693936 86.0680451 108.693936 87.544293 103.594608zM114.582434 103.594608L116.058265 108.693936 120.835121 108.693936 116.970445 111.845916 118.446693 116.945244 114.582017 113.793732 110.718175 116.945244 112.194006 111.845916 108.329746 108.693936 113.106186 108.693936 114.582434 103.594608zM141.620575 103.594608L143.096406 108.693936 147.873262 108.693936 144.008586 111.845916 145.484834 116.945244 141.620575 113.793732 137.755899 116.945244 139.232563 111.845916 135.367887 108.693936 140.144744 108.693936 141.620575 103.594608z" transform="translate(7 5)"/>
  </g>
</svg>
