<svg width="24" height="24" viewBox="0 0 24 24" xmlns="http://www.w3.org/2000/svg">
<path d="M12 3C15.866 3 19 6.13401 19 10C19 12.4432 17.7483 14.5941 15.8511 15.8463L14.9806 20.1961C14.8871 20.6635 14.4767 21 14 21H10C9.52332 21 9.11291 20.6635 9.01942 20.1961L8.14887 15.8463C6.25172 14.5941 5 12.4432 5 10C5 6.13401 8.13401 3 12 3ZM13.6184 16.812C13.0989 16.9349 12.5571 17 12 17C11.443 17 10.9011 16.9349 10.3816 16.812L10.8198 19H13.1802L13.6184 16.812ZM12 5C9.23858 5 7 7.23858 7 10C7 12.7614 9.23858 15 12 15C14.7614 15 17 12.7614 17 10C17 7.23858 14.7614 5 12 5Z" />
</svg>
