<svg width="124" height="24" viewBox="0 0 124 24" fill="none" xmlns="http://www.w3.org/2000/svg">
<path fill-rule="evenodd" clip-rule="evenodd" d="M10.5805 2.31594C10.1546 2.56201 9.7536 2.49784 9.54681 2.14437C9.34015 1.7909 9.49311 1.40849 9.91888 1.1645C10.3448 0.920646 10.9154 0.945401 11.089 1.25552C11.2627 1.56552 11.0084 2.07208 10.5805 2.31594ZM11.3079 3.12419C11.5436 3.55008 12.0066 3.61203 12.5048 3.33086C13.005 3.04155 13.3048 2.45444 13.096 2.09063C12.8873 1.72681 12.2237 1.69159 11.7338 1.98101C11.2438 2.27044 11.0723 2.6983 11.3079 3.12419ZM12.7599 3.7878C12.2617 4.06898 12.0881 4.51347 12.334 4.92889C12.58 5.34443 13.041 5.41057 13.5309 5.13568C14.0208 4.86066 14.3289 4.25495 14.1201 3.89532C13.9114 3.53557 13.2685 3.48594 12.7599 3.7878ZM12.6791 5.95429C12.2511 6.19827 12.1064 6.57453 12.3069 6.93219C12.5074 7.28972 12.9147 7.34564 13.3406 7.10585C13.7664 6.86605 14.0207 6.35333 13.8492 6.04321C13.6776 5.73322 13.1049 5.70834 12.6791 5.95429ZM5.59833 19.765C7.35892 21.21 9.56608 22 11.8438 22C14.4522 21.9962 16.9528 20.9578 18.7967 19.1127C20.6407 17.2677 21.6775 14.7665 21.6796 12.158C21.6793 11.5136 21.4505 10.89 21.0336 10.3985C20.6168 9.90696 20.0392 9.57923 19.4034 9.47355C18.7677 9.36788 18.1152 9.49117 17.5617 9.82148C17.0083 10.1517 16.5901 10.6676 16.3813 11.2774C16.2916 11.5626 16.2429 11.8591 16.2366 12.158C16.2214 12.4556 16.1912 12.7523 16.1457 13.0469C15.9989 13.7618 15.6768 14.4289 15.2082 14.9883C14.7396 15.5477 14.1393 15.9819 13.4612 16.2516C12.7832 16.5213 12.0486 16.6182 11.3238 16.5335C10.599 16.4489 9.90662 16.1853 9.30905 15.7666C8.71135 15.3478 8.2272 14.7871 7.90009 14.1348C7.57309 13.4824 7.41323 12.759 7.43528 12.0296C7.4572 11.3003 7.66029 10.5877 8.02596 9.95622C8.39174 9.32478 8.90877 8.7942 9.53049 8.41215C9.66025 8.33465 9.8012 8.26574 9.94049 8.19765L9.94051 8.19764L9.94054 8.19762L9.94056 8.19761L9.94058 8.1976L9.94061 8.19759L9.94063 8.19758C10.0167 8.16041 10.0922 8.12349 10.1651 8.08553C10.4974 7.93577 10.8015 7.73021 11.0645 7.47786C11.5038 7.02992 11.7747 6.44404 11.8316 5.81937C11.8885 5.19458 11.7277 4.56941 11.3764 4.04967C11.0253 3.52981 10.5052 3.1474 9.90428 2.96709C9.3035 2.78678 8.65876 2.81967 8.07941 3.0602C5.97484 3.93119 4.23741 5.50507 3.16332 7.5137C2.08923 9.5222 1.74488 11.841 2.18887 14.075C2.63287 16.309 3.83787 18.3198 5.59833 19.765ZM43.4767 4.74696C43.3901 4.74733 43.3059 4.77492 43.2358 4.82567C43.1657 4.87653 43.1132 4.94809 43.086 5.03023L39.7433 15.077H39.6958L36.3531 5.02814C36.3258 4.94599 36.2734 4.87444 36.2033 4.82369C36.1332 4.77283 36.049 4.74536 35.9624 4.745H30.7943C30.6846 4.745 30.5795 4.78847 30.5019 4.86606C30.4243 4.94353 30.3809 5.04871 30.3809 5.15845V19.6497C30.3809 19.7593 30.4243 19.8645 30.5019 19.9419C30.5795 20.0195 30.6846 20.0631 30.7943 20.0631H33.9406C34.0502 20.0631 34.1554 20.0195 34.233 19.9419C34.3104 19.8645 34.354 19.7593 34.354 19.6497V10.4402C34.354 10.4121 34.3597 10.3844 34.3707 10.3585C34.3817 10.3328 34.3979 10.3095 34.4182 10.2902C34.4385 10.2709 34.4625 10.2558 34.4888 10.2461C34.5151 10.2364 34.5431 10.2321 34.571 10.2334C34.6165 10.2334 34.6608 10.2476 34.6979 10.2739C34.7348 10.3002 34.7628 10.3374 34.7778 10.3802L37.92 19.7902C37.9474 19.8727 38.0001 19.9445 38.0705 19.9954C38.1411 20.0461 38.2258 20.0735 38.3128 20.0735H41.1263C41.2132 20.0735 41.298 20.0461 41.3684 19.9954C41.439 19.9445 41.4917 19.8727 41.519 19.7902L44.6612 10.3802C44.6765 10.3375 44.7045 10.3005 44.7414 10.2743C44.7785 10.2479 44.8226 10.2338 44.8679 10.2334C44.9227 10.2334 44.9753 10.2552 45.0141 10.294C45.0529 10.3328 45.0747 10.3853 45.0747 10.4402V19.6516C45.0747 19.7614 45.1182 19.8666 45.1958 19.944C45.2733 20.0216 45.3784 20.0651 45.4881 20.0651H48.6303C48.74 20.0651 48.8451 20.0216 48.9226 19.944C49.0002 19.8666 49.0437 19.7614 49.0437 19.6516V5.16042C49.0437 5.0508 49.0002 4.94562 48.9226 4.86816C48.8451 4.79056 48.74 4.74696 48.6303 4.74696H43.4767ZM70.3878 17.2724C69.1557 17.2724 68.0497 16.2202 68.0497 14.5064V14.3391C68.0497 12.6253 69.1475 11.5751 70.3878 11.5751C70.7935 11.571 71.1954 11.6543 71.5661 11.8195C71.9367 11.9846 72.2674 12.2277 72.5356 12.5323C72.6048 12.6077 72.6997 12.6547 72.8016 12.6643C72.9036 12.6738 73.0055 12.6452 73.0876 12.5839L75.0307 11.1369C75.0762 11.1031 75.1141 11.0604 75.1423 11.0114C75.1705 10.9624 75.1884 10.9081 75.1948 10.8519C75.2012 10.7957 75.196 10.7388 75.1795 10.6848C75.163 10.6306 75.1357 10.5805 75.099 10.5373C73.9475 9.20204 72.3434 8.47021 70.2761 8.47021H70.0798C66.7846 8.47021 64.1158 10.9239 64.1158 14.1758V14.6719C64.1158 17.9235 66.7846 20.3774 70.0798 20.3774H70.2761C72.3475 20.3774 73.9475 19.6517 75.099 18.3102C75.1359 18.267 75.1636 18.2168 75.1802 18.1625C75.197 18.1082 75.2023 18.051 75.1959 17.9945C75.1895 17.9381 75.1715 17.8835 75.1431 17.8344C75.1147 17.7851 75.0764 17.7424 75.0307 17.7086L73.0876 16.2615C73.0052 16.2005 72.9032 16.1722 72.8013 16.1822C72.6993 16.192 72.6046 16.2396 72.5356 16.3153C72.2674 16.6198 71.9367 16.8629 71.5661 17.028C71.1954 17.1932 70.7935 17.2766 70.3878 17.2724ZM77.2029 5.09851C77.2029 4.9889 77.2464 4.88372 77.324 4.80613C77.4014 4.72866 77.5066 4.68506 77.6162 4.68506H84.3141C87.7188 4.68506 90.0465 6.68408 90.0465 9.86964V10.0908C90.0465 13.2971 87.7725 15.3416 84.3141 15.3416H81.1575V19.6517C81.1575 19.7614 81.1139 19.8666 81.0364 19.9441C80.9588 20.0217 80.8536 20.0651 80.744 20.0651H77.6162C77.5066 20.0651 77.4014 20.0217 77.324 19.9441C77.2464 19.8666 77.2029 19.7614 77.2029 19.6517V5.09851ZM83.6754 12.0734C85.0376 12.0734 86.0774 11.2465 86.0774 10.0288V9.95856C86.0774 8.79469 85.0831 7.97197 83.7642 7.97197H81.1575V12.0734H83.6754ZM54.923 20.3875C52.6863 20.3875 51.0988 18.8951 51.0988 16.9725C51.0988 14.4443 53.0832 13.3818 57.5071 13.3818H58.2947C58.2947 12.2428 57.6393 11.5688 56.5231 11.5688C55.6713 11.5688 54.7308 11.7611 53.5463 12.3007C53.4554 12.3413 53.3528 12.3478 53.2575 12.319C53.1622 12.2901 53.0804 12.2278 53.0275 12.1435L51.8078 10.1838C51.7776 10.1356 51.7577 10.0817 51.7492 10.0255C51.7408 9.96923 51.7441 9.91196 51.7588 9.85703C51.7736 9.8021 51.7994 9.75087 51.8349 9.70641C51.8704 9.66194 51.9146 9.62537 51.9648 9.59876C53.4655 8.81386 55.1356 8.40854 56.8291 8.41839H57.135C60.1718 8.41839 62.0963 10.3099 62.0963 13.2206V19.6455C62.0963 19.7551 62.0528 19.8603 61.9752 19.9377C61.8977 20.0153 61.7926 20.0589 61.6828 20.0589H58.9521C58.8626 20.0589 58.7756 20.0299 58.7041 19.9762C58.6325 19.9226 58.5802 19.8471 58.5552 19.7613C58.4821 19.5175 58.4268 19.2687 58.3898 19.017L58.3476 19.05C57.5534 19.6711 56.6374 20.3875 54.923 20.3875ZM57.9184 15.5482C56.0146 15.5482 54.4538 15.8562 54.4538 16.8237H54.4455C54.4455 17.4935 55.1421 17.8138 55.8802 17.8222C56.3312 17.8233 56.7777 17.7322 57.1921 17.5545C57.6067 17.3767 57.9805 17.1161 58.2906 16.7885V15.5482H57.9184ZM90.9545 16.9725C90.9545 18.895 92.5421 20.3876 94.7789 20.3876C96.4929 20.3876 97.409 19.6713 98.2031 19.0503L98.2456 19.0171C98.2827 19.2688 98.3378 19.5175 98.411 19.7612C98.436 19.8471 98.4882 19.9226 98.5598 19.9762C98.6313 20.0298 98.7184 20.0589 98.8078 20.0589H101.539C101.648 20.0589 101.753 20.0153 101.831 19.9378C101.909 19.8602 101.952 19.7551 101.952 19.6454V13.2205C101.952 10.3098 100.027 8.41834 96.9907 8.41834H96.6807C94.9893 8.40985 93.3215 8.81505 91.8228 9.59872C91.7725 9.62532 91.7282 9.66202 91.6927 9.70636C91.6573 9.75082 91.6314 9.80218 91.6167 9.85699C91.6019 9.91192 91.5986 9.96931 91.6071 10.0255C91.6155 10.0818 91.6354 10.1356 91.6656 10.1837L92.8853 12.1435C92.9383 12.2283 93.0205 12.2909 93.1162 12.3198C93.212 12.3488 93.3151 12.3419 93.4062 12.3006C94.5887 11.7611 95.5293 11.5688 96.3809 11.5688C97.4973 11.5688 98.1525 12.2427 98.1525 13.3817H97.3649C92.9472 13.3817 90.9545 14.4444 90.9545 16.9725ZM94.3096 16.8237C94.3096 15.8563 95.8724 15.5483 97.7743 15.5483H98.1463V16.7886C97.8368 17.1168 97.4632 17.3778 97.0485 17.5556C96.6338 17.7335 96.1871 17.8241 95.7359 17.8222C95.0062 17.8139 94.3033 17.4935 94.3033 16.8237H94.3096ZM109.955 8.95602L108.272 15.7325C108.259 15.7763 108.233 15.815 108.197 15.8431C108.161 15.8713 108.117 15.8875 108.071 15.8895C108.021 15.89 107.973 15.8722 107.935 15.8396C107.897 15.8068 107.872 15.7614 107.865 15.7118L106.969 8.9995C106.957 8.89937 106.908 8.80749 106.831 8.74123C106.755 8.67497 106.656 8.63888 106.557 8.63975H103.606C103.544 8.63839 103.482 8.6512 103.425 8.67706C103.368 8.70305 103.318 8.7416 103.278 8.78976C103.238 8.83791 103.21 8.89444 103.195 8.95504C103.18 9.01576 103.179 9.07894 103.193 9.14003L105.45 19.7367C105.47 19.831 105.522 19.9156 105.597 19.9756C105.673 20.0356 105.767 20.0673 105.863 20.0654H109.546C109.634 20.0651 109.722 20.0358 109.793 19.9818C109.866 19.9277 109.918 19.8518 109.942 19.7656L111.724 13.5638H111.811L113.593 19.7656C113.617 19.8518 113.669 19.9277 113.742 19.9818C113.813 20.0358 113.899 20.0651 113.989 20.0654H117.663C117.759 20.0673 117.854 20.0356 117.929 19.9756C118.004 19.9156 118.057 19.831 118.077 19.7367L120.351 9.14212C120.364 9.08103 120.363 9.01785 120.348 8.95713C120.333 8.89641 120.305 8.83988 120.266 8.79185C120.225 8.74369 120.176 8.70514 120.118 8.67916C120.061 8.65317 120 8.64048 119.937 8.64184H116.996C116.895 8.64098 116.796 8.67706 116.721 8.74332C116.645 8.80959 116.595 8.90146 116.582 9.00159L115.686 15.7139C115.68 15.7635 115.654 15.8089 115.617 15.8416C115.579 15.8743 115.53 15.8921 115.481 15.8916C115.433 15.8929 115.387 15.8782 115.349 15.8496C115.312 15.821 115.285 15.7804 115.274 15.7344L113.58 8.95602C113.558 8.86649 113.507 8.7868 113.434 8.7299C113.361 8.67288 113.271 8.64196 113.179 8.64184H110.356C110.264 8.64196 110.174 8.67288 110.101 8.7299C110.028 8.7868 109.977 8.86649 109.955 8.95602Z" fill="black"/>
</svg>
