<svg xmlns="http://www.w3.org/2000/svg" width="84" height="24" viewBox="0 0 84 24">
    <path d="M5.14780235,19.23588 L6.26451765,5.37668613 C6.26451765,5.37668613 6.45037176,4.14505547 7.72978588,4.14505547 L9.34430941,4.14505547 L12.7351376,13.2520968 C12.7351376,13.2520968 15.1022388,6.81322511 15.5641059,5.62111095 C15.8782012,4.81040292 16.5352976,4.14505547 17.4244976,4.14505547 L19.0736012,4.14505547 L20.2421788,19.23588 L17.4244976,19.23588 L16.7511588,9.52322044 L13.9549047,16.6540018 L11.4994188,16.6540018 L8.74751765,9.64372423 L7.99665294,19.23588 L5.14780235,19.23588 Z M42.9630129,9.75468774 C42.9630129,9.75468774 42.3065741,11.7410934 40.9354412,11.1704857 C40.0245694,10.7914193 39.8995247,10.5995118 38.7946471,10.5995118 C37.6979518,10.5995118 36.0558529,11.8532854 36.0986612,13.6754073 C36.1286376,14.9515599 36.6096376,15.888087 37.4171365,16.4378927 C37.8786518,16.7521201 38.4470424,16.9598323 39.0163812,16.9598323 C40.0560294,16.9598323 40.3339847,16.7323105 41.17302,16.3388959 C42.3984153,15.764333 43.0516271,17.1634768 43.2574094,17.6380457 C42.8360718,18.1165393 41.3636459,19.5103934 38.9746282,19.4842022 C35.2844482,19.4437463 33.1671918,16.7878356 33.2654106,13.6754073 C33.3636447,10.562979 35.5253,8.0690927 38.8876965,8.0690927 C41.7128259,8.0690927 42.9630129,9.75468774 42.9630129,9.75468774 Z M66.7615929,9.66981912 C66.5551071,8.97157766 67.0008847,8.30860526 67.7351094,8.30860526 L69.3147929,8.30860526 L71.2161882,15.8624482 C71.2161882,15.8624482 72.6402235,10.520262 72.8744071,9.66981912 C73.1493188,8.61717854 73.9137494,8.34055182 74.4310729,8.34055182 C74.9888035,8.34055182 75.6836918,8.34055182 75.6836918,8.34055182 L77.69886,15.8798507 C77.69886,15.8798507 79.0560294,10.5776323 79.2387482,9.72526715 C79.4529118,8.72613153 80.1838788,8.3042165 80.79936,8.3042165 L82.5205906,8.3042165 L79.3530106,19.2166003 L76.3540482,19.2166003 L74.4574247,12.4961961 L72.5777624,19.2166003 L69.5431341,19.2166003 C69.5431341,19.2166003 67.02924,10.5748493 66.7615929,9.66981912 Z M44.8591776,5.69823942 C44.8591776,4.49121022 45.7080012,4.11952263 46.2592012,4.11952263 C46.8104012,4.11952263 48.1307882,4.11952263 50.6309176,4.11952263 C51.7212965,4.11952263 55.0904682,4.93917518 55.0904682,9.05194029 C55.0904682,13.0344253 52.1797071,14.1105191 50.6309176,14.1105191 L47.7192541,14.1105191 L47.7192541,19.2249764 L44.8591776,19.2249764 L44.8591776,5.69823942 Z M47.7072788,6.73211255 L47.6993718,11.5097915 L50.1259671,11.5001517 C50.1259671,11.5001517 52.2256812,11.6030683 52.2256812,9.01018847 C52.2256812,7.2495654 50.9494788,6.73211255 50.0411612,6.73211255 L47.7072788,6.73211255 Z M56.7708176,9.4819327 C56.7708176,9.4819327 58.3970871,8.06427839 60.9926671,8.06437314 C63.4429682,8.06446146 65.2931129,9.32576 65.2931129,12.7332485 C65.2931129,16.1407369 65.2543729,19.2348169 65.2543729,19.2348169 L62.6610565,19.1999782 L62.6889988,17.9376937 C62.6889988,17.9376937 61.8783494,19.4253434 59.7528494,19.4698074 C58.0938353,19.5045128 56.1860776,18.5562036 56.1320282,16.0577648 C56.0853965,13.9019334 57.8490682,13.0134161 58.9557506,12.6963158 C60.7509129,12.1819445 62.4886306,12.268252 62.4886306,12.268252 C62.4886306,12.268252 62.6889988,10.5388448 60.7529776,10.5388448 C59.5483671,10.5388448 59.2461859,10.9267803 58.61486,11.065838 C57.3205494,11.3509258 56.7708176,9.4819327 56.7708176,9.4819327 Z M62.5257647,14.3744966 C61.8197118,14.3744966 60.9031659,14.3662523 60.1396376,14.6228188 C59.5450941,14.8226029 58.9578306,15.1642228 58.9578306,15.9317578 C58.9578306,16.6992945 59.5811271,17.1383454 60.3345306,17.1383454 C61.8374224,17.1383454 62.5681294,15.3620156 62.5257647,14.3744966 Z M22.7520353,9.4819327 C22.7520353,9.4819327 24.37832,8.06427839 26.9738847,8.06437314 C29.4241859,8.06446146 31.2743306,9.32576 31.2743306,12.7332485 C31.2743306,16.1407369 31.2355906,19.2348169 31.2355906,19.2348169 L28.6422741,19.1999782 L28.6702165,17.9376937 C28.6702165,17.9376937 27.8595824,19.4253434 25.7340671,19.4698074 C24.0750529,19.5045128 22.1673106,18.5562036 22.1132459,16.0577648 C22.0666141,13.9019334 23.8303012,13.0134161 24.9369682,12.6963158 C26.7321306,12.1819445 28.4698482,12.268252 28.4698482,12.268252 C28.4698482,12.268252 28.6702165,10.5388448 26.7342106,10.5388448 C25.5295847,10.5388448 25.2274035,10.9267803 24.5960776,11.065838 C23.3017671,11.3509258 22.7520353,9.4819327 22.7520353,9.4819327 Z M28.5069824,14.3744966 C27.8009294,14.3744966 26.8843835,14.3662523 26.1208553,14.6228188 C25.5263118,14.8226029 24.9390482,15.1642228 24.9390482,15.9317578 C24.9390482,16.6992945 25.5623447,17.1383454 26.3157635,17.1383454 C27.81864,17.1383454 28.5493471,15.3620156 28.5069824,14.3744966 Z"/>
</svg>
