<svg xmlns="http://www.w3.org/2000/svg" xmlns:xlink="http://www.w3.org/1999/xlink" width="24" height="24" viewBox="0 0 24 24">
    <defs>
        <path id="24_menu-a" d="M19,17 C19.5522847,17 20,17.4477153 20,18 C20,18.5522847 19.5522847,19 19,19 L5,19 C4.44771525,19 4,18.5522847 4,18 C4,17.4477153 4.44771525,17 5,17 L19,17 Z M19,11 C19.5522847,11 20,11.4477153 20,12 C20,12.5522847 19.5522847,13 19,13 L5,13 C4.44771525,13 4,12.5522847 4,12 C4,11.4477153 4.44771525,11 5,11 L19,11 Z M19,5 C19.5522847,5 20,5.44771525 20,6 C20,6.55228475 19.5522847,7 19,7 L5,7 C4.44771525,7 4,6.55228475 4,6 C4,5.44771525 4.44771525,5 5,5 L19,5 Z"/>
    </defs>
    <g fill-rule="evenodd">
        <rect fill="none" width="24" height="24"/>
        <mask id="24_menu-b" fill="#fff">
            <use xlink:href="#24_menu-a"/>
        </mask>
        <g mask="url(#24_menu-b)">
            <rect width="24" height="24"/>
        </g>
    </g>
</svg>
