<svg width="24" height="24" viewBox="0 0 24 24" xmlns="http://www.w3.org/2000/svg"
     xmlns:xlink="http://www.w3.org/1999/xlink">
    <defs>
        <path d="M7.919.184c.206-.11.98-.378 1.208.052.227.43-.423.929-.644 1.047-.221.118-.581.107-.786-.281a.591.591 0 01.222-.818zm2.305 4.22c.206-.111.98-.379 1.208.052.227.43-.423.928-.644 1.046-.22.119-.581.107-.786-.28a.591.591 0 01.222-.819zM10 21a9.978 9.978 0 01-7.07-2.927A9.957 9.957 0 010 11.006a9.956 9.956 0 012.93-7.067 9.968 9.968 0 013.177-2.141 2.48 2.48 0 013.254 1.32 2.484 2.484 0 01-1.32 3.251 5.02 5.02 0 00-1.6 1.079 4.996 4.996 0 00-1.474 3.558 4.992 4.992 0 001.474 3.557A5.011 5.011 0 0010 16.036a5.012 5.012 0 003.56-1.473 5.021 5.021 0 001.474-3.557 2.485 2.485 0 012.483-2.482A2.485 2.485 0 0120 11.006a9.915 9.915 0 01-.787 3.89 9.946 9.946 0 01-2.142 3.177A9.994 9.994 0 0110 21zm.373-18.472c.23-.123 1.177-.466 1.43.014.254.48-.554 1.08-.8 1.212-.247.132-.65.12-.878-.313a.66.66 0 01.248-.913zM9.495.948c.23-.123 1.154-.454 1.408.026.253.48-.532 1.068-.779 1.2-.246.133-.649.12-.877-.313a.66.66 0 01.248-.913z"
              id="paw-a"
        />
    </defs>
    <g transform="translate(2 1)" fill-rule="evenodd">
        <mask id="paw-b">
            <use xlink:href="#paw-a"/>
        </mask>
        <use xlink:href="#paw-a"/>
        <g mask="url(#paw-b)">
            <path d="M-2-1h24v24H-2z"/>
        </g>
    </g>
</svg>