<svg width="24" height="24" viewBox="0 0 24 24" xmlns="http://www.w3.org/2000/svg">
    <path d="M9.91885973,1.18375547 C10.1249948,1.07339888 10.8993804,0.806062665 11.1266198,1.23634873 C11.3538607,1.66663479 10.7041865,2.16463966 10.4831046,2.28299756 C10.2620228,2.40134008 9.90171671,2.38981511 9.69679364,2.00178214 C9.49186903,1.61374918 9.71272471,1.29409667 9.91885973,1.18375547 Z M12.2241217,5.4031716 C12.4302567,5.2928304 13.2046423,5.02549418 13.4318833,5.45578024 C13.6591227,5.8860663 13.0094485,6.38407118 12.7883666,6.50241369 C12.5672863,6.62077159 12.2069787,6.60923124 12.0020556,6.22119827 C11.797131,5.83318069 12.0179867,5.51352819 12.2241217,5.4031716 Z M11.9999985,22 C10.651437,22 9.34168228,21.7351082 8.10689563,21.213699 C6.91532797,20.7090382 5.84635654,19.9897321 4.92952809,19.0734093 C4.01137765,18.1557632 3.29035088,17.0869415 2.78673483,15.8964705 C2.26503783,14.6636881 2,13.3542145 2,12.0059546 C2,10.6576962 2.26503783,9.34822266 2.78673483,8.11455849 C3.29123286,6.92452918 4.01137765,5.85526124 4.92952809,4.9389415 C5.84679822,4.02217554 6.91576965,3.30154948 8.10689563,2.79777443 C8.41559229,2.66818391 8.74060516,2.60118829 9.07355759,2.60118829 C10.072852,2.60118829 10.9711573,3.1962091 11.3609964,4.11694495 C11.8946003,5.37661339 11.3019044,6.83593771 10.04154,7.36924684 C9.44310992,7.62179755 8.90421504,7.98497721 8.44072989,8.44776707 C7.97724321,8.91187869 7.61386371,9.45003631 7.36073324,10.0481361 C7.09878291,10.6673916 6.96692515,11.3258752 6.96692515,12.0059546 C6.96692515,12.6860355 7.09878291,13.3445175 7.36073324,13.963333 C7.61386371,14.5623145 7.97724321,15.100032 8.44072989,15.563262 C8.9033332,16.0264919 9.44222809,16.3896716 10.04154,16.6431039 C10.660697,16.90447 11.3195441,17.0362547 11.9999985,17.0362547 C12.6808945,17.0362547 13.3397416,16.90447 13.9593388,16.6431039 C14.558209,16.3896716 15.0966638,16.0264919 15.5597088,15.563262 C16.0223121,15.1004736 16.3861332,14.5627561 16.6397054,13.963333 C16.9016557,13.3436374 17.0343953,12.6855939 17.0343953,12.0059546 C17.0343953,10.6374206 18.1479016,9.52408232 19.5172038,9.52408232 C20.8860474,9.52408232 22,10.6374206 22,12.0059546 C22,13.3542145 21.7354042,14.6636881 21.2128148,15.8964705 C20.7100934,17.0869415 19.9890533,18.1557632 19.0713507,19.0734093 C18.154076,19.9897321 17.0842273,20.7090382 15.8935415,21.213699 C14.6587564,21.7351082 13.3485615,22 11.9999985,22 Z M12.373014,3.5277097 C12.6030272,3.40458179 13.5501299,3.06183318 13.8036929,3.5419582 C14.0572544,4.0220986 13.2493086,4.62222794 13.0026185,4.7542804 C12.7559283,4.88634825 12.3538857,4.8734846 12.1252249,4.44050579 C11.8965626,4.00752698 12.1430022,3.65083762 12.373014,3.5277097 Z M11.4945934,1.94792714 C11.7246067,1.82478384 12.6491195,1.49414492 12.9026824,1.97426993 C13.1562439,2.45439495 12.3708881,3.04243 12.1241979,3.17449784 C11.8775077,3.3065503 11.4754651,3.29368665 11.2468028,2.86070784 C11.0181421,2.42772903 11.2645801,2.07105506 11.4945934,1.94792714 Z"></path>
</svg>
