<svg xmlns="http://www.w3.org/2000/svg" fill="none" viewBox="0 0 70 54">
  <path fill="#000" d="M63.731 4.907H6.27l-.718.001a30.39 30.39 0 0 0-.605.01 8.79 8.79 0 0 0-1.316.115 4.46 4.46 0 0 0-1.252.413 4.2 4.2 0 0 0-1.84 1.84c-.203.4-.333.81-.412 1.251A8.731 8.731 0 0 0 .01 9.853c-.005.202-.008.403-.009.604V44.17c.001.201.004.403.01.604.01.439.037.882.115 1.316.08.441.209.851.412 1.252a4.184 4.184 0 0 0 1.84 1.84c.4.203.81.333 1.252.412.433.078.877.104 1.316.116.201.005.403.007.605.008.239.002.478.002.718.002H63.73c.24 0 .479 0 .718-.002.201 0 .403-.003.605-.008a8.866 8.866 0 0 0 1.317-.116c.44-.079.85-.209 1.25-.413a4.212 4.212 0 0 0 1.84-1.84c.204-.4.334-.81.412-1.251a8.72 8.72 0 0 0 .116-1.316c.005-.201.008-.403.01-.604l.002-.72V11.176c0-.24 0-.48-.002-.719 0-.2-.004-.402-.009-.604a8.725 8.725 0 0 0-.116-1.316 4.4 4.4 0 0 0-.412-1.252 4.221 4.221 0 0 0-1.84-1.84c-.4-.203-.81-.333-1.25-.412a8.812 8.812 0 0 0-1.317-.116 30.204 30.204 0 0 0-.605-.009l-.718-.001Z"/>
  <path fill="#fff" d="m63.731 6.4.707.002c.192.002.383.004.576.009.335.009.727.027 1.092.093.317.057.583.144.839.274a2.706 2.706 0 0 1 1.186 1.187c.13.253.216.518.272.838.066.361.084.754.093 1.091.005.19.008.38.009.575l.001.707v32.276c0 .236 0 .47-.002.711 0 .19-.003.38-.008.571a7.54 7.54 0 0 1-.093 1.095c-.056.315-.143.58-.273.835a2.705 2.705 0 0 1-1.188 1.187c-.253.13-.519.217-.833.273a7.62 7.62 0 0 1-1.089.093 82.956 82.956 0 0 1-1.289.01H6.26c-.232 0-.465 0-.701-.002-.193 0-.386-.004-.572-.008a7.61 7.61 0 0 1-1.092-.092 2.935 2.935 0 0 1-.84-.275 2.689 2.689 0 0 1-1.184-1.185 2.933 2.933 0 0 1-.274-.84 7.39 7.39 0 0 1-.093-1.09 27.976 27.976 0 0 1-.008-.573l-.001-.562V10.468c.002-.192.004-.383.01-.574.008-.335.026-.726.093-1.094.056-.316.143-.582.273-.838a2.695 2.695 0 0 1 1.186-1.185c.254-.13.52-.216.838-.273a7.457 7.457 0 0 1 1.093-.093c.191-.005.383-.007.573-.009l.709-.001h57.46Z"/>
  <path fill="#000" d="M19.11 19.98c.599-.75 1.006-1.757.898-2.785-.877.043-1.948.579-2.567 1.329-.557.642-1.05 1.691-.921 2.677.985.085 1.969-.493 2.59-1.221Zm.887 1.413c-1.43-.085-2.646.812-3.33.812-.683 0-1.729-.77-2.86-.748-1.472.021-2.839.854-3.586 2.178-1.537 2.649-.405 6.578 1.09 8.735.725 1.068 1.6 2.243 2.752 2.2 1.089-.042 1.516-.704 2.84-.704 1.322 0 1.707.705 2.86.683 1.195-.02 1.942-1.067 2.668-2.136.833-1.216 1.173-2.391 1.195-2.456-.022-.021-2.305-.897-2.326-3.524-.022-2.2 1.793-3.246 1.878-3.31-1.025-1.516-2.626-1.687-3.18-1.73Zm12.454-2.977c3.11 0 5.274 2.143 5.274 5.263 0 3.13-2.21 5.285-5.352 5.285h-3.442v5.474h-2.486V18.416h6.006Zm-3.52 8.46h2.854c2.165 0 3.397-1.165 3.397-3.186 0-2.02-1.232-3.175-3.386-3.175h-2.865v6.361Zm9.444 4.242c0-2.043 1.565-3.298 4.341-3.453l3.198-.189v-.9c0-1.298-.878-2.075-2.343-2.075-1.388 0-2.254.666-2.465 1.71h-2.265c.133-2.11 1.932-3.665 4.819-3.665 2.83 0 4.64 1.5 4.64 3.842v8.05h-2.298v-1.921h-.055c-.677 1.299-2.154 2.12-3.686 2.12-2.287 0-3.886-1.42-3.886-3.519Zm7.539-1.055v-.921l-2.876.177c-1.432.1-2.243.733-2.243 1.732 0 1.022.844 1.688 2.132 1.688 1.676 0 2.987-1.155 2.987-2.676Zm4.556 8.672v-1.943c.178.044.577.044.777.044 1.11 0 1.71-.466 2.077-1.665 0-.023.21-.711.21-.722l-4.218-11.692h2.597l2.954 9.505h.044l2.954-9.505h2.531l-4.374 12.291c-1 2.832-2.154 3.742-4.575 3.742-.2 0-.8-.022-.977-.055Z"/>
</svg>
