<svg xmlns="http://www.w3.org/2000/svg" fill="none" viewBox="0 0 205 70"><path fill="#000" d="m195.901 16.713-9.83 22.253-11.128-22.253h-8.554l15.764 30.874L175.649 62h8.303l20.252-45.287zM161.65 51.117h-8.132v-3.213c-2.939 2.522-6.447 3.914-10.696 3.914-9.727 0-17.336-7.863-17.336-17.909S133.095 16 142.822 16c4.237 0 7.757 1.392 10.696 3.914v-3.213h8.132zm-7.176-17.208c0-6.483-4.556-11.415-10.604-11.415s-10.604 4.921-10.604 11.415 4.556 11.415 10.604 11.415 10.604-4.921 10.604-11.415M85.085 62h8.486V48.198c2.859 2.33 6.264 3.62 10.342 3.62 9.727 0 17.336-7.863 17.336-17.909S113.64 16 103.913 16c-4.237 0-7.757 1.392-10.695 3.914v-3.213h-8.133zm17.78-39.495c6.048 0 10.604 4.921 10.604 11.415s-4.556 11.416-10.604 11.416-10.604-4.922-10.604-11.416 4.556-11.415 10.604-11.415M70.07 35c0 19.333-15.683 35-35.035 35S0 54.333 0 35 15.683 0 35.035 0 70.07 15.667 70.07 35M40.895 18.555v17.607l-12.24-17.607H18.563v32.902h10.602V33.85l12.239 17.607h10.094V18.555z"/></svg>