<svg width="70" height="54" viewBox="0 0 70 54" xmlns="http://www.w3.org/2000/svg" xmlns:xlink="http://www.w3.org/1999/xlink">
    <defs>
        <linearGradient x1="50%" y1="11.381%" x2="100%" y2="86.359%" id="b">
            <stop stop-color="#0058A7" offset="0%"/>
            <stop stop-color="#0088CF" offset="58.322%"/>
            <stop stop-color="#00B5CF" offset="100%"/>
        </linearGradient>
        <linearGradient x1="-15.435%" y1="-6.81%" x2="123.662%" y2="101.852%" id="d">
            <stop stop-color="#003FA7" offset="0%"/>
            <stop stop-color="#00B5CF" offset="100%"/>
        </linearGradient>
        <linearGradient x1="-20.854%" y1="1.385%" x2="123.662%" y2="101.852%" id="e">
            <stop stop-color="#005FB5" offset="0%"/>
            <stop stop-color="#009CCF" offset="100%"/>
        </linearGradient>
        <rect id="a" x="0" y="0" width="70" height="54" rx="8"/>
        <rect id="c" x="0" y="0" width="70" height="54" rx="8"/>
    </defs>
    <g fill="none" fill-rule="evenodd">
        <g>
            <use fill="url(#b)" xlink:href="#a"/>
            <use fill="url(#d)" xlink:href="#c"/>
            <use fill="url(#e)" xlink:href="#c"/>
        </g>
        <path d="M18.605 28.374h-3.419a.475.475 0 00-.47.402l-1.382 8.768a.285.285 0 00.282.329h1.632c.234 0 .433-.17.47-.401l.373-2.366a.475.475 0 01.469-.401h1.082c2.253 0 3.553-1.09 3.892-3.25.153-.945.007-1.688-.436-2.207-.486-.572-1.348-.874-2.492-.874zM19 31.577c-.187 1.227-1.125 1.227-2.031 1.227h-.516l.362-2.291a.285.285 0 01.282-.241h.236c.618 0 1.2 0 1.501.352.18.21.235.522.166.953zm9.827-.04h-1.638c-.14 0-.26.103-.281.241l-.073.458-.114-.166c-.355-.514-1.145-.686-1.934-.686-1.81 0-3.355 1.37-3.656 3.293-.157.959.066 1.876.61 2.515.499.588 1.213.833 2.063.833 1.458 0 2.266-.937 2.266-.937l-.073.455a.285.285 0 00.281.33h1.475c.234 0 .433-.17.47-.402l.885-5.604a.284.284 0 00-.281-.33zm-2.283 3.188c-.158.935-.9 1.563-1.847 1.563-.475 0-.855-.152-1.1-.442-.242-.287-.334-.695-.257-1.15.148-.928.903-1.576 1.835-1.576.465 0 .843.154 1.092.446.25.294.349.705.277 1.158zm11.004-3.188h-1.645a.477.477 0 00-.394.209l-2.27 3.343-.961-3.212a.477.477 0 00-.456-.34h-1.617a.285.285 0 00-.271.378l1.813 5.319-1.704 2.405a.285.285 0 00.232.45h1.644a.475.475 0 00.39-.204l5.473-7.9a.285.285 0 00-.234-.448zM42.996 28.375h-3.42a.475.475 0 00-.469.4l-1.383 8.769a.285.285 0 00.281.329h1.755c.164 0 .303-.12.328-.281l.392-2.486a.475.475 0 01.47-.401h1.081c2.253 0 3.553-1.09 3.893-3.25.153-.945.006-1.688-.437-2.208-.485-.57-1.347-.873-2.491-.873zm.394 3.202c-.186 1.227-1.124 1.227-2.03 1.227h-.516l.362-2.291a.284.284 0 01.281-.241h.237c.617 0 1.2 0 1.501.352.18.21.234.522.165.953zm9.827-.04h-1.636c-.14 0-.26.102-.282.241l-.072.458-.115-.166c-.355-.514-1.145-.686-1.934-.686-1.809 0-3.354 1.37-3.655 3.293-.156.959.066 1.876.61 2.515.5.588 1.212.833 2.062.833 1.458 0 2.267-.937 2.267-.937l-.074.455a.285.285 0 00.282.33h1.475c.234 0 .433-.171.469-.402l.886-5.604a.285.285 0 00-.283-.33zm-2.282 3.188c-.157.935-.901 1.563-1.848 1.563-.475 0-.856-.152-1.1-.442-.242-.287-.333-.695-.257-1.15.149-.928.903-1.576 1.836-1.576.465 0 .842.154 1.091.446.251.294.35.705.278 1.158zm4.212-6.11l-1.403 8.929a.285.285 0 00.281.329h1.411c.234 0 .434-.17.47-.402l1.383-8.768a.285.285 0 00-.28-.329h-1.58c-.14 0-.26.103-.282.241z" fill="#FFF" fill-rule="nonzero"/>
        <path fill="#FFF" d="M29 24.322h4.273l6.64-7.238L38.73 14H31.68z"/>
        <path d="M40.524 15.834c-.014.089-.03.18-.048.275-.619 3.175-2.735 4.272-5.437 4.272h-1.376c-.33 0-.609.24-.66.566l-.705 4.468-.2 1.267a.352.352 0 00.348.407h2.44c.29 0 .535-.21.58-.495l.024-.125.46-2.916.03-.16a.587.587 0 01.58-.496h.364c2.365 0 4.216-.96 4.757-3.738.226-1.16.109-2.129-.489-2.81a2.333 2.333 0 00-.668-.516z" fill="#B6CDE6" fill-rule="nonzero"/>
        <path d="M39.275 15.442a7.642 7.642 0 00-1.213-.089h-3.676c-.289 0-.535.21-.579.497l-.782 4.953-.023.144a.668.668 0 01.661-.566h1.376c2.702 0 4.818-1.097 5.437-4.272.018-.094.034-.186.048-.275a3.297 3.297 0 00-.647-.258 4.878 4.878 0 00-.602-.134z" fill="#E9F0F8" fill-rule="nonzero"/>
        <path d="M33.807 15.85a.585.585 0 01.58-.496h3.675c.436 0 .842.028 1.213.088.252.04.5.099.741.177.182.06.352.132.508.214.184-1.173-.001-1.972-.636-2.696C39.19 12.341 37.926 12 36.311 12h-4.69a.67.67 0 00-.663.567l-1.953 12.382a.403.403 0 00.397.466h2.896l.727-4.612.782-4.953z" fill="#FFF" fill-rule="nonzero"/>
    </g>
</svg>