<svg width="70" height="54" viewBox="0 0 70 54" xmlns="http://www.w3.org/2000/svg">
    <defs>
        <linearGradient x1="-46.892%" y1="-3.242%" x2="100%" y2="79.755%" id="a">
            <stop stop-color="#606060" offset="0%"/>
            <stop stop-color="#353141" offset="100%"/>
        </linearGradient>
    </defs>
    <g transform="translate(-9 -17)" fill="none" fill-rule="evenodd">
        <rect fill="url(#a)" x="9" y="17" width="70" height="54" rx="8"/>
        <path d="M33.363 57.053v-1.801a1.069 1.069 0 00-1.129-1.141 1.11 1.11 0 00-1.008.51 1.054 1.054 0 00-.95-.51.949.949 0 00-.84.426v-.354h-.624v2.87h.63v-1.579a.673.673 0 01.703-.763c.414 0 .624.27.624.757v1.597h.63v-1.591a.676.676 0 01.703-.763c.427 0 .63.27.63.757v1.597l.631-.012zm9.328-2.87h-1.027v-.87h-.63v.87h-.57v.57h.582v1.321c0 .667.258 1.063.997 1.063.276.001.546-.076.78-.222l-.18-.534c-.167.1-.357.155-.552.162-.3 0-.415-.192-.415-.48v-1.31h1.021l-.006-.57zm5.326-.072a.847.847 0 00-.756.42v-.348h-.619v2.87h.625v-1.61c0-.473.204-.738.6-.738.134-.001.266.023.39.072l.193-.6a1.336 1.336 0 00-.445-.078l.012.012zm-8.052.3a2.147 2.147 0 00-1.17-.3c-.727 0-1.202.348-1.202.919 0 .468.349.756.991.846l.3.042c.343.048.505.138.505.3 0 .223-.228.349-.655.349-.343.01-.679-.096-.954-.3l-.3.486c.363.254.799.384 1.242.372.829 0 1.31-.39 1.31-.937 0-.546-.38-.768-1.004-.858l-.3-.042c-.27-.036-.486-.09-.486-.282 0-.193.204-.337.546-.337.317.004.627.089.9.247l.277-.505zm16.726-.3a.847.847 0 00-.757.42v-.348h-.618v2.87h.624v-1.61c0-.473.204-.738.6-.738.134-.001.267.023.39.072l.193-.6a1.336 1.336 0 00-.444-.078l.012.012zm-8.046 1.501a1.45 1.45 0 001.53 1.501c.376.02.744-.103 1.034-.342l-.3-.504a1.26 1.26 0 01-.751.258.922.922 0 010-1.838c.271.003.534.094.75.259l.3-.505a1.501 1.501 0 00-1.032-.342 1.45 1.45 0 00-1.531 1.501v.012zm5.848 0v-1.429h-.624v.348a1.09 1.09 0 00-.901-.42 1.501 1.501 0 000 3.002c.35.013.685-.143.9-.42v.348h.625v-1.429zm-2.324 0a.868.868 0 11.871.919.862.862 0 01-.87-.919zm-7.535-1.501a1.501 1.501 0 10.042 3.002c.432.022.856-.117 1.192-.39l-.3-.462c-.238.19-.531.295-.835.3a.796.796 0 01-.859-.703h2.132v-.24c0-.9-.559-1.501-1.363-1.501l-.01-.006zm0 .558a.712.712 0 01.726.697h-1.5c.022-.401.36-.71.762-.697h.012zm15.644.95V53.03h-.6v1.501a1.09 1.09 0 00-.9-.42 1.501 1.501 0 100 3.002c.35.013.685-.143.9-.42v.348h.6v-1.423zm1.042 1.017a.3.3 0 01.207.08.28.28 0 01-.093.462.282.282 0 01-.114.025.3.3 0 01-.27-.174.282.282 0 01.063-.312.3.3 0 01.216-.081h-.009zm0 .507a.213.213 0 00.156-.066.222.222 0 000-.3.222.222 0 00-.156-.066.225.225 0 00-.159.066.222.222 0 000 .3c.02.02.045.037.072.048.03.013.063.02.096.018h-.009zm.018-.357a.12.12 0 01.078.024.075.075 0 01.027.063c.001.02-.006.04-.02.054a.105.105 0 01-.064.027l.087.1h-.069l-.08-.1h-.028v.1h-.057v-.265l.126-.003zm-.066.051v.072h.066a.063.063 0 00.036 0 .03.03 0 000-.027.03.03 0 000-.027.063.063 0 00-.036 0l-.066-.018zm-3.302-1.219a.868.868 0 11.87.919.862.862 0 01-.87-.919zm-21.085 0v-1.435h-.625v.348a1.09 1.09 0 00-.9-.42 1.501 1.501 0 100 3.002c.35.013.685-.143.9-.42v.348h.625v-1.423zm-2.324 0a.868.868 0 11.87.919.862.862 0 01-.876-.919h.006z" fill="#FFF" fill-rule="nonzero"/>
        <path fill="#FF5F00" d="M39.758 32.312h9.457v16.996h-9.457z"/>
        <path d="M40.358 40.811a10.79 10.79 0 014.129-8.5 10.808 10.808 0 100 16.996 10.79 10.79 0 01-4.129-8.496z" fill="#EB001B"/>
        <path d="M61.975 40.811a10.808 10.808 0 01-17.488 8.496 10.808 10.808 0 000-16.995 10.808 10.808 0 0117.488 8.496v.003z" fill="#F79E1B"/>
        <path d="M61.205 49.09v-1.66h.313v-.344h-.792v.343h.34v1.66h.14zm1.539 0v-2.004h-.24l-.28 1.431-.28-1.431h-.213v2.004h.174v-1.503l.26 1.302h.18l.259-1.302v1.517l.14-.014z" fill="#FFF" fill-rule="nonzero"/>
    </g>
</svg>