<svg xmlns="http://www.w3.org/2000/svg" fill="none" viewBox="0 0 40 26"><rect width="40" height="26" fill="#FFCD01" rx="4.706"/><path fill="#000" d="M9.488 17.5c-.238-.402 0-.702.068-1.003s.153-.617.243-.951c-.164-.125-.334-.238-.504-.363a2.832 2.832 0 0 1-.034-4.735 4.815 4.815 0 0 1 6.152.345 2.76 2.76 0 0 1 0 4.033 4.53 4.53 0 0 1-3.32 1.264 1.43 1.43 0 0 0-.895.271c-.413.3-.85.595-1.274.873-.125.09-.255.158-.436.266m9.482-7.132h.861c.057.091.136.204.193.284q.47-.24.974-.403a1.626 1.626 0 0 1 1.949.997 3.5 3.5 0 0 1 .056 2.606 2.09 2.09 0 0 1-2.22 1.433l-.527-.034v1.7h-1.274c-.012-2.193-.012-4.362-.012-6.583m1.275 1.133v2.72a1.13 1.13 0 0 0 1.535-.816 3 3 0 0 0 0-1.49.71.71 0 0 0-.567-.567 1.16 1.16 0 0 0-.968.153m11.425-1.342c.448.124.839.232 1.275.368-.227.629-.425 1.212-.652 1.79-.39 1.053-.77 2.13-1.195 3.16a3.26 3.26 0 0 1-1.41 1.7c-.25-.22-.505-.459-.754-.691.363-.436.697-.867 1.031-1.28-.566-1.564-1.133-3.087-1.7-4.668l1.281-.368c.346 1.195.685 2.35 1.02 3.5h.113c.317-1.138.64-2.293.991-3.511m-3.92 5.007h-.883l-.153-.34-.125.034a5.4 5.4 0 0 1-1.133.402c-1.042.102-1.7-.566-1.58-1.654.068-.844.629-1.314 1.603-1.388h.986c.119-.566-.091-.9-.607-.878q-.713.064-1.41.227c-.09-.215-.215-.481-.346-.793a2.95 2.95 0 0 1 2.266-.515 1.524 1.524 0 0 1 1.371 1.506c.057 1.133.011 2.22.011 3.4m-1.268-1.207v-.866h-.77c-.618.068-.817.459-.539 1.048a1.3 1.3 0 0 0 1.309-.21z"/></svg>