<svg xmlns="http://www.w3.org/2000/svg" fill="none" viewBox="0 0 70 54">
  <rect width="70" height="54" fill="#BB2765" rx="8.235"/>
  <path fill="#fff" d="M19.703 43h16.313c11.52 0 17.866-5.695 17.866-16.037 0-5.96-2.32-15.963-17.866-15.963H19.703A2.704 2.704 0 0 0 17 13.703v26.595A2.706 2.706 0 0 0 19.703 43Z"/>
  <path fill="#000" d="M36.016 43H19.703A2.706 2.706 0 0 1 17 40.297V13.703A2.704 2.704 0 0 1 19.703 11h16.313c15.545 0 17.866 10.002 17.866 15.963C53.882 37.305 47.537 43 36.016 43ZM19.703 12.035a1.669 1.669 0 0 0-1.668 1.668v26.595a1.668 1.668 0 0 0 1.668 1.666h16.313c10.854 0 16.83-5.324 16.83-15 0-12.99-10.543-14.928-16.83-14.928H19.703Z"/>
  <path fill="#C06" d="M27.081 16.28v23.19H37.18c9.17 0 13.147-5.183 13.147-12.485 0-7.002-3.977-12.445-13.147-12.445h-8.35a1.75 1.75 0 0 0-1.75 1.74Z"/>
  <path fill="#fff" d="M30.918 23.956c.326-.003.65.053.957.163.287.108.548.277.763.496.225.234.398.513.507.819.129.371.19.762.184 1.155.003.363-.047.725-.15 1.074-.09.31-.243.599-.449.848a2.116 2.116 0 0 1-.753.562 2.529 2.529 0 0 1-1.06.205h-2.244v-5.324l2.245.002Zm-.083 4.33c.168 0 .334-.027.492-.08.16-.056.306-.15.425-.272.134-.141.235-.31.297-.495.08-.24.119-.493.112-.746a3.16 3.16 0 0 0-.077-.734 1.47 1.47 0 0 0-.257-.55 1.142 1.142 0 0 0-.474-.353 1.876 1.876 0 0 0-.725-.123h-.786v3.354h.993Zm7.311-4.33v.984h-2.754v1.144h2.526v.908H35.38v1.295h2.817v.982H34.21v-5.324l3.936.01Zm3.947 0 1.989 5.324h-1.216l-.402-1.184h-1.988l-.417 1.184h-1.178l2.019-5.324h1.193Zm.066 3.262-.67-1.952h-.014l-.693 1.952h1.377Zm3.777-3.253V28.3h2.54v.984h-3.71v-5.325l1.17.006Z"/>
  <path fill="#000" d="M22.519 30.64a1.937 1.937 0 0 1 1.937 1.938v6.891a3.872 3.872 0 0 1-3.872-3.871v-3.022a1.937 1.937 0 0 1 1.935-1.935Zm0-1.468a2.556 2.556 0 1 0 0-5.111 2.556 2.556 0 0 0 0 5.11Z"/>
</svg>
