<svg xmlns="http://www.w3.org/2000/svg" fill="none" viewBox="0 0 70 54">
  <rect width="70" height="54" fill="#3875F6" rx="8.235"/>
  <path fill="#fff" d="M41.797 10.029H28.204A3.203 3.203 0 0 0 25 13.233v13.592a3.203 3.203 0 0 0 3.204 3.204h13.593A3.203 3.203 0 0 0 45 26.825V13.233a3.202 3.202 0 0 0-3.203-3.204Z"/>
  <path fill="#3875F6" d="M30.404 25.408c-3.111 0-4.031-2.45-2.494-3.791.514-.454 1.451-.675 1.951-.724 1.848-.183 3.56.522 5.578 1.508-1.419 1.851-3.227 3.007-5.035 3.007Zm11.063-2.822c-.8-.268-1.875-.677-3.07-1.11a16.141 16.141 0 0 0 1.669-4.216h-3.943v-1.42h4.83v-.793h-4.83V12.68h-1.97c-.346 0-.346.341-.346.341v2.026h-4.885v.793h4.884v1.42h-4.032v.792h7.821c-.286.986-.67 1.912-1.127 2.753-2.537-.837-5.246-1.516-6.947-1.098-1.088.268-1.788.746-2.2 1.247-1.89 2.3-.535 5.791 3.456 5.791 2.36 0 4.632-1.315 6.394-3.483C39.798 24.525 45 26.693 45 26.693v-3.09s-.653-.052-3.533-1.017Z"/>
  <path fill="#fff" d="M29.642 35.316c0 .61.446 1.02 1.067 1.02s1.067-.41 1.067-1.02c0-.598-.446-1.02-1.067-1.02s-1.067.422-1.067 1.02Zm-2.977 7.796h1.852v-8.557h-1.852v8.557Zm-5.943-2.966 1.102-3.81h.047l1.043 3.81h-2.192Zm2.696-5.298h-2.485l-2.778 8.264h1.711l.47-1.618h2.941l.446 1.618h2.192l-2.497-8.264Zm6.365 8.264h1.852v-6.283h-1.852v6.283Zm21.205-6.272.012-.012h-1.747l-1.101 3.822h-.059l-1.266-3.822h-2.075l2.497 6.307-1.043 1.922v.047h1.63l3.152-8.264ZM35.07 42.033c-.211 0-.41-.023-.633-.094v-3.4c.387-.269.703-.398 1.102-.398.691 0 1.242.551 1.242 1.723 0 1.5-.809 2.169-1.711 2.169Zm1.172-5.334c-.68 0-1.207.258-1.805.75v-.62h-1.852v8.275h1.852v-2.051c.352.094.68.14 1.078.14 1.653 0 3.142-1.219 3.142-3.387 0-1.946-1.079-3.106-2.415-3.106Zm6.295 4.889c-.492.27-.774.375-1.102.375-.445 0-.727-.293-.727-.762 0-.176.036-.352.176-.492.223-.223.657-.387 1.653-.622v1.5Zm1.852-.047v-2.626c0-1.43-.844-2.215-2.333-2.215-.95 0-1.605.164-2.801.527l.328 1.442c1.09-.492 1.57-.703 2.075-.703.61 0 .879.434.879 1.102v.047c-2.122.398-2.778.62-3.188 1.031-.305.305-.434.739-.434 1.243 0 1.207.938 1.852 1.817 1.852.656 0 1.184-.246 1.899-.786l.129.657h1.852l-.223-1.571Z"/>
</svg>
