<svg xmlns="http://www.w3.org/2000/svg" width="24" height="24" viewBox="0 0 24 24">
  <path d="M16.5,4.20577137 C20.8046336,6.69105274 22.27951,12.1953664 19.7942286,16.5 C17.3089473,20.8046336 11.8046336,22.27951 7.5,19.7942286 C6.57892353,19.2624449 5.771504,18.5826671 5.10238162,17.7846493 L4.85799154,17.4799082 L4.24953391,16.6863218 L5.83670663,15.4694066 L6.44516426,16.2629929 C6.99932732,16.9857651 7.69247305,17.5959519 8.5,18.0621778 C11.8480484,19.9951745 16.1291812,18.8480484 18.0621778,15.5 C19.9951745,12.1519516 18.8480484,7.8708188 15.5,5.93782217 C12.4459771,4.17458122 8.6155603,4.97422548 6.49919574,7.66944194 L9.03589838,9.1339746 L3.07179677,11.4641016 L2.10769515,5.1339746 L4.7531997,6.6616314 C7.433938,3.01312922 12.4880203,1.88945382 16.5,4.20577137 Z"/>
</svg>
