<svg xmlns="http://www.w3.org/2000/svg" xmlns:xlink="http://www.w3.org/1999/xlink" width="24" height="24" viewBox="0 0 24 24">
    <defs>
        <path id="24_package-a" d="M7,7 C6.44771525,7 6,7.44771525 6,8 L6,18 C6,18.5522847 6.44771525,19 7,19 L17,19 C17.5522847,19 18,18.5522847 18,18 L18,8 C18,7.44771525 17.5522847,7 17,7 L7,7 Z M12,2 C13.8639271,2 15.4300871,3.27489272 15.8740452,5.00024347 L17,5 C18.6568542,5 20,6.34314575 20,8 L20,18 C20,19.6568542 18.6568542,21 17,21 L7,21 C5.34314575,21 4,19.6568542 4,18 L4,8 C4,6.34314575 5.34314575,5 7,5 L8.12595483,5.00024347 C8.56991294,3.27489272 10.1360729,2 12,2 Z M12,4 C11.2597476,4 10.6134261,4.40216612 10.2676063,4.99992752 L13.7323937,4.99992752 C13.3865739,4.40216612 12.7402524,4 12,4 Z"/>
    </defs>
    <g fill-rule="evenodd">
        <rect fill="none" width="24" height="24"/>
        <mask id="24_package-b" fill="#fff">
            <use xlink:href="#24_package-a"/>
        </mask>
        <g mask="url(#24_package-b)">
            <rect width="24" height="24"/>
        </g>
    </g>
</svg>
